<?xml version="1.0" encoding="UTF-8" standalone="no"?>
<!DOCTYPE svg PUBLIC "-//W3C//DTD SVG 1.1//EN"
 "http://www.w3.org/Graphics/SVG/1.1/DTD/svg11.dtd">
<!-- Generated by graphviz version 2.38.0 (20140413.2041)
 -->
<!-- Title: snakemake_dag Pages: 1 -->
<svg width="755pt" height="404pt"
 viewBox="0.00 0.00 755.00 404.00" xmlns="http://www.w3.org/2000/svg" xmlns:xlink="http://www.w3.org/1999/xlink">
<g id="graph0" class="graph" transform="scale(1 1) rotate(0) translate(4 400)">
<title>snakemake_dag</title>
<polygon fill="white" stroke="none" points="-4,4 -4,-400 751,-400 751,4 -4,4"/>
<!-- 0 -->
<g id="node1" class="node"><title>0</title>
<polygon fill="#fcf3cf" stroke="black" stroke-width="2" points="232.5,-108 119.5,-108 119.5,-72 232.5,-72 232.5,-108"/>
<text text-anchor="middle" x="176" y="-87.5" font-family="sans" font-size="10.00">freebayes_vcf_filter</text>
</g>
<!-- 11 -->
<g id="node10" class="node"><title>11</title>
<polygon fill="#fcf3cf" stroke="black" stroke-width="2" points="333,-36 277,-36 277,-0 333,-0 333,-36"/>
<text text-anchor="middle" x="305" y="-15.5" font-family="sans" font-size="10.00">pipeline</text>
</g>
<!-- 0&#45;&gt;11 -->
<g id="edge8" class="edge"><title>0&#45;&gt;11</title>
<path fill="none" stroke="black" stroke-width="2" d="M207.557,-71.8761C225.762,-61.9975 248.752,-49.522 267.83,-39.17"/>
<polygon fill="black" stroke="black" stroke-width="2" points="269.722,-42.1251 276.842,-34.2793 266.384,-35.9725 269.722,-42.1251"/>
</g>
<!-- 2 -->
<g id="node2" class="node"><title>2</title>
<polygon fill="#fcf3cf" stroke="black" stroke-width="2" points="288,-180 234,-180 234,-144 288,-144 288,-180"/>
<text text-anchor="middle" x="261" y="-159.5" font-family="sans" font-size="10.00">snpeff</text>
</g>
<!-- 2&#45;&gt;0 -->
<g id="edge1" class="edge"><title>2&#45;&gt;0</title>
<path fill="none" stroke="black" stroke-width="2" d="M239.989,-143.697C229.284,-134.881 216.11,-124.032 204.504,-114.474"/>
<polygon fill="black" stroke="black" stroke-width="2" points="206.714,-111.76 196.77,-108.104 202.264,-117.163 206.714,-111.76"/>
</g>
<!-- 7 -->
<g id="node7" class="node"><title>7</title>
<polygon fill="#fcf3cf" stroke="black" stroke-width="2" points="305,-108 251,-108 251,-72 305,-72 305,-108"/>
<text text-anchor="middle" x="278" y="-87.5" font-family="sans" font-size="10.00">multiqc</text>
</g>
<!-- 2&#45;&gt;7 -->
<g id="edge7" class="edge"><title>2&#45;&gt;7</title>
<path fill="none" stroke="black" stroke-width="2" d="M265.202,-143.697C267.096,-135.898 269.377,-126.509 271.484,-117.829"/>
<polygon fill="black" stroke="black" stroke-width="2" points="274.887,-118.648 273.846,-108.104 268.085,-116.996 274.887,-118.648"/>
</g>
<!-- 2&#45;&gt;11 -->
<g id="edge9" class="edge"><title>2&#45;&gt;11</title>
<path fill="none" stroke="black" stroke-width="2" d="M285.477,-143.768C296.404,-134.555 308.124,-122.186 314,-108 322.186,-88.2378 318.958,-63.9778 314.229,-45.7805"/>
<polygon fill="black" stroke="black" stroke-width="2" points="317.57,-44.7371 311.428,-36.1045 310.846,-46.6834 317.57,-44.7371"/>
</g>
<!-- 3 -->
<g id="node3" class="node"><title>3</title>
<polygon fill="#fcf3cf" stroke="black" stroke-width="2" points="161,-252 69,-252 69,-216 161,-216 161,-252"/>
<text text-anchor="middle" x="115" y="-231.5" font-family="sans" font-size="10.00">mapping_index</text>
</g>
<!-- 5 -->
<g id="node5" class="node"><title>5</title>
<polygon fill="#fcf3cf" stroke="black" stroke-width="2" points="64,-180 0,-180 0,-144 64,-144 64,-180"/>
<text text-anchor="middle" x="32" y="-159.5" font-family="sans" font-size="10.00">igv_count</text>
</g>
<!-- 3&#45;&gt;5 -->
<g id="edge5" class="edge"><title>3&#45;&gt;5</title>
<path fill="none" stroke="black" stroke-width="2" d="M94.4831,-215.697C84.1305,-206.965 71.4137,-196.24 60.161,-186.75"/>
<polygon fill="black" stroke="black" stroke-width="2" points="62.1817,-183.876 52.2809,-180.104 57.6687,-189.227 62.1817,-183.876"/>
</g>
<!-- 15 -->
<g id="node14" class="node"><title>15</title>
<polygon fill="#fcf3cf" stroke="black" stroke-width="2" points="147.5,-180 82.5,-180 82.5,-144 147.5,-144 147.5,-180"/>
<text text-anchor="middle" x="115" y="-159.5" font-family="sans" font-size="10.00">igv_bases</text>
</g>
<!-- 3&#45;&gt;15 -->
<g id="edge18" class="edge"><title>3&#45;&gt;15</title>
<path fill="none" stroke="black" stroke-width="2" d="M115,-215.697C115,-207.983 115,-198.712 115,-190.112"/>
<polygon fill="black" stroke="black" stroke-width="2" points="118.5,-190.104 115,-180.104 111.5,-190.104 118.5,-190.104"/>
</g>
<!-- 4 -->
<g id="node4" class="node"><title>4</title>
<polygon fill="#fcf3cf" stroke="black" stroke-width="2" points="63,-108 1,-108 1,-72 63,-72 63,-108"/>
<text text-anchor="middle" x="32" y="-87.5" font-family="sans" font-size="10.00">coverage</text>
</g>
<!-- 4&#45;&gt;11 -->
<g id="edge10" class="edge"><title>4&#45;&gt;11</title>
<path fill="none" stroke="black" stroke-width="2" d="M63.2881,-76.5726C67.8545,-74.9367 72.525,-73.3588 77,-72 142.838,-52.0084 221.319,-35.2776 266.922,-26.2391"/>
<polygon fill="black" stroke="black" stroke-width="2" points="267.82,-29.6297 276.958,-24.269 266.471,-22.7608 267.82,-29.6297"/>
</g>
<!-- 5&#45;&gt;4 -->
<g id="edge4" class="edge"><title>5&#45;&gt;4</title>
<path fill="none" stroke="black" stroke-width="2" d="M32,-143.697C32,-135.983 32,-126.712 32,-118.112"/>
<polygon fill="black" stroke="black" stroke-width="2" points="35.5001,-118.104 32,-108.104 28.5001,-118.104 35.5001,-118.104"/>
</g>
<!-- 6 -->
<g id="node6" class="node"><title>6</title>
<polygon fill="#fcf3cf" stroke="black" stroke-width="2" points="199.5,-324 140.5,-324 140.5,-288 199.5,-288 199.5,-324"/>
<text text-anchor="middle" x="170" y="-303.5" font-family="sans" font-size="10.00">mapping</text>
</g>
<!-- 6&#45;&gt;3 -->
<g id="edge3" class="edge"><title>6&#45;&gt;3</title>
<path fill="none" stroke="black" stroke-width="2" d="M156.404,-287.697C149.877,-279.389 141.932,-269.277 134.753,-260.141"/>
<polygon fill="black" stroke="black" stroke-width="2" points="137.369,-257.805 128.439,-252.104 131.865,-262.13 137.369,-257.805"/>
</g>
<!-- 13 -->
<g id="node12" class="node"><title>13</title>
<polygon fill="#fcf3cf" stroke="black" stroke-width="2" points="260.5,-252 195.5,-252 195.5,-216 260.5,-216 260.5,-252"/>
<text text-anchor="middle" x="228" y="-231.5" font-family="sans" font-size="10.00">freebayes</text>
</g>
<!-- 6&#45;&gt;13 -->
<g id="edge16" class="edge"><title>6&#45;&gt;13</title>
<path fill="none" stroke="black" stroke-width="2" d="M184.337,-287.697C191.291,-279.305 199.77,-269.07 207.401,-259.861"/>
<polygon fill="black" stroke="black" stroke-width="2" points="210.143,-262.038 213.828,-252.104 204.753,-257.571 210.143,-262.038"/>
</g>
<!-- 7&#45;&gt;11 -->
<g id="edge11" class="edge"><title>7&#45;&gt;11</title>
<path fill="none" stroke="black" stroke-width="2" d="M284.674,-71.6966C287.715,-63.8132 291.383,-54.3042 294.761,-45.5464"/>
<polygon fill="black" stroke="black" stroke-width="2" points="298.069,-46.6939 298.403,-36.1043 291.538,-44.1748 298.069,-46.6939"/>
</g>
<!-- 8 -->
<g id="node8" class="node"><title>8</title>
<g id="a_node8"><a xlink:href="images/proportion_kraken.png" xlink:title="create_proportion_plot_kraken" target="_parent">
<polygon fill="#5499c7" stroke="black" stroke-width="2" points="527,-108 361,-108 361,-72 527,-72 527,-108"/>
<text text-anchor="middle" x="444" y="-87.5" font-family="sans" font-size="10.00">create_proportion_plot_kraken</text>
</a>
</g>
</g>
<!-- 8&#45;&gt;11 -->
<g id="edge12" class="edge"><title>8&#45;&gt;11</title>
<path fill="none" stroke="black" stroke-width="2" d="M409.997,-71.8761C389.413,-61.5103 363.151,-48.2849 342.042,-37.6541"/>
<polygon fill="black" stroke="black" stroke-width="2" points="343.549,-34.4946 333.044,-33.1228 340.401,-40.7466 343.549,-34.4946"/>
</g>
<!-- 10 -->
<g id="node9" class="node"><title>10</title>
<g id="a_node9"><a xlink:href="kraken.html" xlink:title="sequana_kraken" target="_parent">
<polygon fill="#5499c7" stroke="black" stroke-width="2" points="642.5,-108 545.5,-108 545.5,-72 642.5,-72 642.5,-108"/>
<text text-anchor="middle" x="594" y="-87.5" font-family="sans" font-size="10.00">sequana_kraken</text>
</a>
</g>
</g>
<!-- 10&#45;&gt;11 -->
<g id="edge13" class="edge"><title>10&#45;&gt;11</title>
<path fill="none" stroke="black" stroke-width="2" d="M545.324,-74.5045C542.174,-73.6372 539.046,-72.795 536,-72 468.451,-54.3683 388.972,-36.8273 343.048,-27.0016"/>
<polygon fill="black" stroke="black" stroke-width="2" points="343.733,-23.5692 333.223,-24.9079 342.274,-30.4154 343.733,-23.5692"/>
</g>
<!-- 12 -->
<g id="node11" class="node"><title>12</title>
<g id="a_node11"><a xlink:href="images/plot_ccs_histo.png" xlink:title="plot_ccs_histo" target="_parent">
<polygon fill="#5499c7" stroke="black" stroke-width="2" points="747,-108 661,-108 661,-72 747,-72 747,-108"/>
<text text-anchor="middle" x="704" y="-87.5" font-family="sans" font-size="10.00">plot_ccs_histo</text>
</a>
</g>
</g>
<!-- 12&#45;&gt;11 -->
<g id="edge14" class="edge"><title>12&#45;&gt;11</title>
<path fill="none" stroke="black" stroke-width="2" d="M660.741,-74.2681C657.797,-73.4482 654.864,-72.682 652,-72 541.369,-45.6564 407.642,-29.5566 343.277,-22.7643"/>
<polygon fill="black" stroke="black" stroke-width="2" points="343.496,-19.2684 333.188,-21.7163 342.773,-26.2309 343.496,-19.2684"/>
</g>
<!-- 13&#45;&gt;2 -->
<g id="edge2" class="edge"><title>13&#45;&gt;2</title>
<path fill="none" stroke="black" stroke-width="2" d="M236.157,-215.697C239.914,-207.728 244.453,-198.1 248.618,-189.264"/>
<polygon fill="black" stroke="black" stroke-width="2" points="251.838,-190.642 252.937,-180.104 245.506,-187.657 251.838,-190.642"/>
</g>
<!-- 14 -->
<g id="node13" class="node"><title>14</title>
<polygon fill="#fcf3cf" stroke="black" stroke-width="2" points="271.5,-396 126.5,-396 126.5,-360 271.5,-360 271.5,-396"/>
<text text-anchor="middle" x="199" y="-375.5" font-family="sans" font-size="10.00">snpeff_add_locus_in_fasta</text>
</g>
<!-- 14&#45;&gt;6 -->
<g id="edge6" class="edge"><title>14&#45;&gt;6</title>
<path fill="none" stroke="black" stroke-width="2" d="M191.831,-359.697C188.565,-351.813 184.626,-342.304 180.998,-333.546"/>
<polygon fill="black" stroke="black" stroke-width="2" points="184.147,-332.003 177.086,-324.104 177.68,-334.683 184.147,-332.003"/>
</g>
<!-- 14&#45;&gt;13 -->
<g id="edge17" class="edge"><title>14&#45;&gt;13</title>
<path fill="none" stroke="black" stroke-width="2" d="M202.498,-359.871C207.462,-335.564 216.6,-290.819 222.483,-262.013"/>
<polygon fill="black" stroke="black" stroke-width="2" points="225.918,-262.687 224.49,-252.189 219.059,-261.287 225.918,-262.687"/>
</g>
<!-- 15&#45;&gt;11 -->
<g id="edge15" class="edge"><title>15&#45;&gt;11</title>
<path fill="none" stroke="black" stroke-width="2" d="M107.916,-143.653C101.214,-124.15 94.3036,-92.532 110,-72 128.937,-47.2292 215.59,-31.3051 266.792,-23.8849"/>
<polygon fill="black" stroke="black" stroke-width="2" points="267.421,-27.331 276.836,-22.4722 266.446,-20.3992 267.421,-27.331"/>
</g>
</g>
</svg>
