<?xml version="1.0" encoding="UTF-8" standalone="no"?>
<!DOCTYPE svg PUBLIC "-//W3C//DTD SVG 1.1//EN"
 "http://www.w3.org/Graphics/SVG/1.1/DTD/svg11.dtd">
<!-- Generated by graphviz version 2.38.0 (20140413.2041)
 -->
<!-- Title: snakemake_dag Pages: 1 -->
<svg width="298pt" height="548pt"
 viewBox="0.00 0.00 297.50 548.00" xmlns="http://www.w3.org/2000/svg" xmlns:xlink="http://www.w3.org/1999/xlink">
<g id="graph0" class="graph" transform="scale(1 1) rotate(0) translate(4 544)">
<title>snakemake_dag</title>
<polygon fill="white" stroke="none" points="-4,4 -4,-544 293.5,-544 293.5,4 -4,4"/>
<!-- 0 -->
<g id="node1" class="node"><title>0</title>
<path fill="none" stroke="#d85656" stroke-width="2" d="M178.5,-36C178.5,-36 148.5,-36 148.5,-36 142.5,-36 136.5,-30 136.5,-24 136.5,-24 136.5,-12 136.5,-12 136.5,-6 142.5,-0 148.5,-0 148.5,-0 178.5,-0 178.5,-0 184.5,-0 190.5,-6 190.5,-12 190.5,-12 190.5,-24 190.5,-24 190.5,-30 184.5,-36 178.5,-36"/>
<text text-anchor="middle" x="163.5" y="-15.5" font-family="sans" font-size="10.00">all</text>
</g>
<!-- 1 -->
<g id="node2" class="node"><title>1</title>
<path fill="none" stroke="#d87556" stroke-width="2" d="M163.5,-252C163.5,-252 95.5,-252 95.5,-252 89.5,-252 83.5,-246 83.5,-240 83.5,-240 83.5,-228 83.5,-228 83.5,-222 89.5,-216 95.5,-216 95.5,-216 163.5,-216 163.5,-216 169.5,-216 175.5,-222 175.5,-228 175.5,-228 175.5,-240 175.5,-240 175.5,-246 169.5,-252 163.5,-252"/>
<text text-anchor="middle" x="129.5" y="-231.5" font-family="sans" font-size="10.00">markDuplicates</text>
</g>
<!-- 8 -->
<g id="node9" class="node"><title>8</title>
<path fill="none" stroke="#56d8d8" stroke-width="2" d="M59,-108C59,-108 12,-108 12,-108 6,-108 0,-102 0,-96 0,-96 0,-84 0,-84 0,-78 6,-72 12,-72 12,-72 59,-72 59,-72 65,-72 71,-78 71,-84 71,-84 71,-96 71,-96 71,-102 65,-108 59,-108"/>
<text text-anchor="middle" x="35.5" y="-87.5" font-family="sans" font-size="10.00">peakCalling</text>
</g>
<!-- 1&#45;&gt;8 -->
<g id="edge11" class="edge"><title>1&#45;&gt;8</title>
<path fill="none" stroke="grey" stroke-width="2" d="M114.432,-215.882C105.826,-205.759 95.076,-192.509 86.5,-180 72.5226,-159.612 58.7091,-135.168 48.991,-117.061"/>
<polygon fill="grey" stroke="grey" stroke-width="2" points="52.0815,-115.418 44.3031,-108.224 45.8977,-118.698 52.0815,-115.418"/>
</g>
<!-- 9 -->
<g id="node10" class="node"><title>9</title>
<path fill="none" stroke="#56b9d8" stroke-width="2" d="M157.5,-108C157.5,-108 101.5,-108 101.5,-108 95.5,-108 89.5,-102 89.5,-96 89.5,-96 89.5,-84 89.5,-84 89.5,-78 95.5,-72 101.5,-72 101.5,-72 157.5,-72 157.5,-72 163.5,-72 169.5,-78 169.5,-84 169.5,-84 169.5,-96 169.5,-96 169.5,-102 163.5,-108 157.5,-108"/>
<text text-anchor="middle" x="129.5" y="-87.5" font-family="sans" font-size="10.00">plotCoverage</text>
</g>
<!-- 1&#45;&gt;9 -->
<g id="edge12" class="edge"><title>1&#45;&gt;9</title>
<path fill="none" stroke="grey" stroke-width="2" d="M113.89,-215.774C106.127,-206.03 97.5541,-193.184 93.5,-180 88.7972,-164.707 88.7972,-159.293 93.5,-144 96.5089,-134.215 102.007,-124.616 107.816,-116.334"/>
<polygon fill="grey" stroke="grey" stroke-width="2" points="110.695,-118.328 113.89,-108.226 105.093,-114.131 110.695,-118.328"/>
</g>
<!-- 10 -->
<g id="node11" class="node"><title>10</title>
<path fill="none" stroke="#569ad8" stroke-width="2" d="M144.5,-180C144.5,-180 114.5,-180 114.5,-180 108.5,-180 102.5,-174 102.5,-168 102.5,-168 102.5,-156 102.5,-156 102.5,-150 108.5,-144 114.5,-144 114.5,-144 144.5,-144 144.5,-144 150.5,-144 156.5,-150 156.5,-156 156.5,-156 156.5,-168 156.5,-168 156.5,-174 150.5,-180 144.5,-180"/>
<text text-anchor="middle" x="129.5" y="-159.5" font-family="sans" font-size="10.00">index</text>
</g>
<!-- 1&#45;&gt;10 -->
<g id="edge14" class="edge"><title>1&#45;&gt;10</title>
<path fill="none" stroke="grey" stroke-width="2" d="M129.5,-215.697C129.5,-207.983 129.5,-198.712 129.5,-190.112"/>
<polygon fill="grey" stroke="grey" stroke-width="2" points="133,-190.104 129.5,-180.104 126,-190.104 133,-190.104"/>
</g>
<!-- 11 -->
<g id="node12" class="node"><title>11</title>
<path fill="none" stroke="#567bd8" stroke-width="2" d="M216.5,-180C216.5,-180 186.5,-180 186.5,-180 180.5,-180 174.5,-174 174.5,-168 174.5,-168 174.5,-156 174.5,-156 174.5,-150 180.5,-144 186.5,-144 186.5,-144 216.5,-144 216.5,-144 222.5,-144 228.5,-150 228.5,-156 228.5,-156 228.5,-168 228.5,-168 228.5,-174 222.5,-180 216.5,-180"/>
<text text-anchor="middle" x="201.5" y="-159.5" font-family="sans" font-size="10.00">multiqc</text>
</g>
<!-- 1&#45;&gt;11 -->
<g id="edge15" class="edge"><title>1&#45;&gt;11</title>
<path fill="none" stroke="grey" stroke-width="2" d="M147.298,-215.697C156.104,-207.135 166.882,-196.656 176.501,-187.304"/>
<polygon fill="grey" stroke="grey" stroke-width="2" points="179.177,-189.585 183.907,-180.104 174.297,-184.566 179.177,-189.585"/>
</g>
<!-- 2 -->
<g id="node3" class="node"><title>2</title>
<path fill="none" stroke="#d89556" stroke-width="2" d="M207.5,-324C207.5,-324 177.5,-324 177.5,-324 171.5,-324 165.5,-318 165.5,-312 165.5,-312 165.5,-300 165.5,-300 165.5,-294 171.5,-288 177.5,-288 177.5,-288 207.5,-288 207.5,-288 213.5,-288 219.5,-294 219.5,-300 219.5,-300 219.5,-312 219.5,-312 219.5,-318 213.5,-324 207.5,-324"/>
<text text-anchor="middle" x="192.5" y="-303.5" font-family="sans" font-size="10.00">sort</text>
</g>
<!-- 2&#45;&gt;1 -->
<g id="edge5" class="edge"><title>2&#45;&gt;1</title>
<path fill="none" stroke="grey" stroke-width="2" d="M176.927,-287.697C169.298,-279.22 159.977,-268.864 151.624,-259.583"/>
<polygon fill="grey" stroke="grey" stroke-width="2" points="154.185,-257.196 144.894,-252.104 148.982,-261.879 154.185,-257.196"/>
</g>
<!-- 4 -->
<g id="node5" class="node"><title>4</title>
<path fill="none" stroke="#b6d856" stroke-width="2" d="M277.5,-108C277.5,-108 237.5,-108 237.5,-108 231.5,-108 225.5,-102 225.5,-96 225.5,-96 225.5,-84 225.5,-84 225.5,-78 231.5,-72 237.5,-72 237.5,-72 277.5,-72 277.5,-72 283.5,-72 289.5,-78 289.5,-84 289.5,-84 289.5,-96 289.5,-96 289.5,-102 283.5,-108 277.5,-108"/>
<text text-anchor="middle" x="257.5" y="-87.5" font-family="sans" font-size="10.00">InsertSize</text>
</g>
<!-- 2&#45;&gt;4 -->
<g id="edge8" class="edge"><title>2&#45;&gt;4</title>
<path fill="none" stroke="grey" stroke-width="2" d="M199.451,-287.834C208.945,-263.947 226.088,-219.197 237.5,-180 243.439,-159.601 248.646,-136.14 252.257,-118.429"/>
<polygon fill="grey" stroke="grey" stroke-width="2" points="255.769,-118.714 254.291,-108.223 248.904,-117.346 255.769,-118.714"/>
</g>
<!-- 3 -->
<g id="node4" class="node"><title>3</title>
<path fill="none" stroke="#d8b456" stroke-width="2" d="M215.5,-396C215.5,-396 169.5,-396 169.5,-396 163.5,-396 157.5,-390 157.5,-384 157.5,-384 157.5,-372 157.5,-372 157.5,-366 163.5,-360 169.5,-360 169.5,-360 215.5,-360 215.5,-360 221.5,-360 227.5,-366 227.5,-372 227.5,-372 227.5,-384 227.5,-384 227.5,-390 221.5,-396 215.5,-396"/>
<text text-anchor="middle" x="192.5" y="-375.5" font-family="sans" font-size="10.00">samToBam</text>
</g>
<!-- 3&#45;&gt;2 -->
<g id="edge6" class="edge"><title>3&#45;&gt;2</title>
<path fill="none" stroke="grey" stroke-width="2" d="M192.5,-359.697C192.5,-351.983 192.5,-342.712 192.5,-334.112"/>
<polygon fill="grey" stroke="grey" stroke-width="2" points="196,-334.104 192.5,-324.104 189,-334.104 196,-334.104"/>
</g>
<!-- 4&#45;&gt;0 -->
<g id="edge1" class="edge"><title>4&#45;&gt;0</title>
<path fill="none" stroke="grey" stroke-width="2" d="M234.264,-71.6966C222.312,-62.796 207.577,-51.8232 194.653,-42.1989"/>
<polygon fill="grey" stroke="grey" stroke-width="2" points="196.58,-39.2699 186.469,-36.1043 192.399,-44.8842 196.58,-39.2699"/>
</g>
<!-- 5 -->
<g id="node6" class="node"><title>5</title>
<path fill="none" stroke="#78d856" stroke-width="2" d="M216,-468C216,-468 169,-468 169,-468 163,-468 157,-462 157,-456 157,-456 157,-444 157,-444 157,-438 163,-432 169,-432 169,-432 216,-432 216,-432 222,-432 228,-438 228,-444 228,-444 228,-456 228,-456 228,-462 222,-468 216,-468"/>
<text text-anchor="middle" x="192.5" y="-447.5" font-family="sans" font-size="10.00">bowtie2_PE</text>
</g>
<!-- 5&#45;&gt;3 -->
<g id="edge7" class="edge"><title>5&#45;&gt;3</title>
<path fill="none" stroke="grey" stroke-width="2" d="M192.5,-431.697C192.5,-423.983 192.5,-414.712 192.5,-406.112"/>
<polygon fill="grey" stroke="grey" stroke-width="2" points="196,-406.104 192.5,-396.104 189,-406.104 196,-406.104"/>
</g>
<!-- 6 -->
<g id="node7" class="node"><title>6</title>
<path fill="none" stroke="#59d856" stroke-width="2" d="M171.5,-540C171.5,-540 141.5,-540 141.5,-540 135.5,-540 129.5,-534 129.5,-528 129.5,-528 129.5,-516 129.5,-516 129.5,-510 135.5,-504 141.5,-504 141.5,-504 171.5,-504 171.5,-504 177.5,-504 183.5,-510 183.5,-516 183.5,-516 183.5,-528 183.5,-528 183.5,-534 177.5,-540 171.5,-540"/>
<text text-anchor="middle" x="156.5" y="-519.5" font-family="sans" font-size="10.00">unzipR2</text>
</g>
<!-- 6&#45;&gt;5 -->
<g id="edge10" class="edge"><title>6&#45;&gt;5</title>
<path fill="none" stroke="grey" stroke-width="2" d="M165.399,-503.697C169.497,-495.728 174.449,-486.1 178.993,-477.264"/>
<polygon fill="grey" stroke="grey" stroke-width="2" points="182.242,-478.598 183.703,-468.104 176.017,-475.396 182.242,-478.598"/>
</g>
<!-- 7 -->
<g id="node8" class="node"><title>7</title>
<path fill="none" stroke="#56d8b9" stroke-width="2" d="M243.5,-540C243.5,-540 213.5,-540 213.5,-540 207.5,-540 201.5,-534 201.5,-528 201.5,-528 201.5,-516 201.5,-516 201.5,-510 207.5,-504 213.5,-504 213.5,-504 243.5,-504 243.5,-504 249.5,-504 255.5,-510 255.5,-516 255.5,-516 255.5,-528 255.5,-528 255.5,-534 249.5,-540 243.5,-540"/>
<text text-anchor="middle" x="228.5" y="-519.5" font-family="sans" font-size="10.00">unzipR1</text>
</g>
<!-- 7&#45;&gt;5 -->
<g id="edge9" class="edge"><title>7&#45;&gt;5</title>
<path fill="none" stroke="grey" stroke-width="2" d="M219.601,-503.697C215.503,-495.728 210.551,-486.1 206.007,-477.264"/>
<polygon fill="grey" stroke="grey" stroke-width="2" points="208.983,-475.396 201.297,-468.104 202.758,-478.598 208.983,-475.396"/>
</g>
<!-- 8&#45;&gt;0 -->
<g id="edge2" class="edge"><title>8&#45;&gt;0</title>
<path fill="none" stroke="grey" stroke-width="2" d="M66.8123,-71.8761C85.1303,-61.8584 108.332,-49.17 127.415,-38.7338"/>
<polygon fill="grey" stroke="grey" stroke-width="2" points="129.319,-41.6821 136.413,-33.8131 125.96,-35.5405 129.319,-41.6821"/>
</g>
<!-- 9&#45;&gt;0 -->
<g id="edge3" class="edge"><title>9&#45;&gt;0</title>
<path fill="none" stroke="grey" stroke-width="2" d="M137.904,-71.6966C141.775,-63.7284 146.452,-54.0995 150.743,-45.2641"/>
<polygon fill="grey" stroke="grey" stroke-width="2" points="153.971,-46.6286 155.192,-36.1043 147.675,-43.5702 153.971,-46.6286"/>
</g>
<!-- 10&#45;&gt;9 -->
<g id="edge13" class="edge"><title>10&#45;&gt;9</title>
<path fill="none" stroke="grey" stroke-width="2" d="M129.5,-143.697C129.5,-135.983 129.5,-126.712 129.5,-118.112"/>
<polygon fill="grey" stroke="grey" stroke-width="2" points="133,-118.104 129.5,-108.104 126,-118.104 133,-118.104"/>
</g>
<!-- 11&#45;&gt;0 -->
<g id="edge4" class="edge"><title>11&#45;&gt;0</title>
<path fill="none" stroke="grey" stroke-width="2" d="M197.207,-143.907C192.671,-125.967 185.255,-96.9555 178.5,-72 176.191,-63.4689 173.594,-54.1897 171.218,-45.8146"/>
<polygon fill="grey" stroke="grey" stroke-width="2" points="174.572,-44.8146 168.464,-36.1582 167.841,-46.7347 174.572,-44.8146"/>
</g>
</g>
</svg>
