<?xml version="1.0" encoding="UTF-8" standalone="no"?>
<!DOCTYPE svg PUBLIC "-//W3C//DTD SVG 1.1//EN"
 "http://www.w3.org/Graphics/SVG/1.1/DTD/svg11.dtd">
<!-- Generated by graphviz version 2.38.0 (20140413.2041)
 -->
<!-- Title: snakemake_dag Pages: 1 -->
<svg width="276pt" height="260pt"
 viewBox="0.00 0.00 276.00 260.00" xmlns="http://www.w3.org/2000/svg" xmlns:xlink="http://www.w3.org/1999/xlink">
<g id="graph0" class="graph" transform="scale(1 1) rotate(0) translate(4 256)">
<title>snakemake_dag</title>
<polygon fill="white" stroke="none" points="-4,4 -4,-256 272,-256 272,4 -4,4"/>
<!-- 0 -->
<g id="node1" class="node"><title>0</title>
<g id="a_node1"><a xlink:href="fastqc.html" xlink:title="fastqc" target="_parent">
<path fill="none" stroke="#59d856" stroke-width="2" d="M42,-180C42,-180 12,-180 12,-180 6,-180 0,-174 0,-168 0,-168 0,-156 0,-156 0,-150 6,-144 12,-144 12,-144 42,-144 42,-144 48,-144 54,-150 54,-156 54,-156 54,-168 54,-168 54,-174 48,-180 42,-180"/>
<text text-anchor="middle" x="27" y="-159.5" font-family="sans" font-size="10.00">fastqc</text>
</a>
</g>
</g>
<!-- 7 -->
<g id="node6" class="node"><title>7</title>
<g id="a_node6"><a xlink:href="index.html" xlink:title="report_phix_removal" target="_parent">
<path fill="none" stroke="#569ad8" stroke-width="2" d="M171.5,-108C171.5,-108 80.5,-108 80.5,-108 74.5,-108 68.5,-102 68.5,-96 68.5,-96 68.5,-84 68.5,-84 68.5,-78 74.5,-72 80.5,-72 80.5,-72 171.5,-72 171.5,-72 177.5,-72 183.5,-78 183.5,-84 183.5,-84 183.5,-96 183.5,-96 183.5,-102 177.5,-108 171.5,-108"/>
<text text-anchor="middle" x="126" y="-87.5" font-family="sans" font-size="10.00">report_phix_removal</text>
</a>
</g>
</g>
<!-- 0&#45;&gt;7 -->
<g id="edge3" class="edge"><title>0&#45;&gt;7</title>
<path fill="none" stroke="grey" stroke-width="2" d="M51.2181,-143.876C63.9227,-134.893 79.6644,-123.763 93.4232,-114.034"/>
<polygon fill="grey" stroke="grey" stroke-width="2" points="95.5443,-116.821 101.689,-108.19 91.503,-111.105 95.5443,-116.821"/>
</g>
<!-- 2 -->
<g id="node2" class="node"><title>2</title>
<g id="a_node2"><a xlink:href="index.html" xlink:title="all" target="_parent">
<path fill="none" stroke="#56d8d8" stroke-width="2" d="M141,-36C141,-36 111,-36 111,-36 105,-36 99,-30 99,-24 99,-24 99,-12 99,-12 99,-6 105,-0 111,-0 111,-0 141,-0 141,-0 147,-0 153,-6 153,-12 153,-12 153,-24 153,-24 153,-30 147,-36 141,-36"/>
<text text-anchor="middle" x="126" y="-15.5" font-family="sans" font-size="10.00">all</text>
</a>
</g>
</g>
<!-- 3 -->
<g id="node3" class="node"><title>3</title>
<g id="a_node3"><a xlink:href="bwa_mem.html" xlink:title="bwa_mem" target="_parent">
<path fill="none" stroke="#d89556" stroke-width="2" stroke-dasharray="5,2" d="M147,-252C147,-252 105,-252 105,-252 99,-252 93,-246 93,-240 93,-240 93,-228 93,-228 93,-222 99,-216 105,-216 105,-216 147,-216 147,-216 153,-216 159,-222 159,-228 159,-228 159,-240 159,-240 159,-246 153,-252 147,-252"/>
<text text-anchor="middle" x="126" y="-231.5" font-family="sans" font-size="10.00">bwa_mem</text>
</a>
</g>
</g>
<!-- 4 -->
<g id="node4" class="node"><title>4</title>
<g id="a_node4"><a xlink:href="index.html" xlink:title="bwa_bam_to_fastq" target="_parent">
<path fill="none" stroke="#56d89a" stroke-width="2" stroke-dasharray="5,2" d="M167.5,-180C167.5,-180 84.5,-180 84.5,-180 78.5,-180 72.5,-174 72.5,-168 72.5,-168 72.5,-156 72.5,-156 72.5,-150 78.5,-144 84.5,-144 84.5,-144 167.5,-144 167.5,-144 173.5,-144 179.5,-150 179.5,-156 179.5,-156 179.5,-168 179.5,-168 179.5,-174 173.5,-180 167.5,-180"/>
<text text-anchor="middle" x="126" y="-159.5" font-family="sans" font-size="10.00">bwa_bam_to_fastq</text>
</a>
</g>
</g>
<!-- 3&#45;&gt;4 -->
<g id="edge2" class="edge"><title>3&#45;&gt;4</title>
<path fill="none" stroke="grey" stroke-width="2" d="M126,-215.697C126,-207.983 126,-198.712 126,-190.112"/>
<polygon fill="grey" stroke="grey" stroke-width="2" points="129.5,-190.104 126,-180.104 122.5,-190.104 129.5,-190.104"/>
</g>
<!-- 4&#45;&gt;7 -->
<g id="edge5" class="edge"><title>4&#45;&gt;7</title>
<path fill="none" stroke="grey" stroke-width="2" d="M126,-143.697C126,-135.983 126,-126.712 126,-118.112"/>
<polygon fill="grey" stroke="grey" stroke-width="2" points="129.5,-118.104 126,-108.104 122.5,-118.104 129.5,-118.104"/>
</g>
<!-- 5 -->
<g id="node5" class="node"><title>5</title>
<g id="a_node5"><a xlink:href="fastq_stats.html" xlink:title="fastq_stats" target="_parent">
<path fill="none" stroke="#97d856" stroke-width="2" d="M256,-180C256,-180 210,-180 210,-180 204,-180 198,-174 198,-168 198,-168 198,-156 198,-156 198,-150 204,-144 210,-144 210,-144 256,-144 256,-144 262,-144 268,-150 268,-156 268,-156 268,-168 268,-168 268,-174 262,-180 256,-180"/>
<text text-anchor="middle" x="233" y="-159.5" font-family="sans" font-size="10.00">fastq_stats</text>
</a>
</g>
</g>
<!-- 5&#45;&gt;7 -->
<g id="edge4" class="edge"><title>5&#45;&gt;7</title>
<path fill="none" stroke="grey" stroke-width="2" d="M206.825,-143.876C192.964,-134.808 175.759,-123.552 160.789,-113.759"/>
<polygon fill="grey" stroke="grey" stroke-width="2" points="162.56,-110.735 152.276,-108.19 158.728,-116.593 162.56,-110.735"/>
</g>
<!-- 7&#45;&gt;2 -->
<g id="edge1" class="edge"><title>7&#45;&gt;2</title>
<path fill="none" stroke="grey" stroke-width="2" d="M126,-71.6966C126,-63.9827 126,-54.7125 126,-46.1124"/>
<polygon fill="grey" stroke="grey" stroke-width="2" points="129.5,-46.1043 126,-36.1043 122.5,-46.1044 129.5,-46.1043"/>
</g>
</g>
</svg>
