<?xml version="1.0" encoding="UTF-8" standalone="no"?>
<!DOCTYPE svg PUBLIC "-//W3C//DTD SVG 1.1//EN"
 "http://www.w3.org/Graphics/SVG/1.1/DTD/svg11.dtd">
<!-- Generated by graphviz version 2.38.0 (20140413.2041)
 -->
<!-- Title: snakemake_dag Pages: 1 -->
<svg width="558pt" height="332pt"
 viewBox="0.00 0.00 558.00 332.00" xmlns="http://www.w3.org/2000/svg" xmlns:xlink="http://www.w3.org/1999/xlink">
<g id="graph0" class="graph" transform="scale(1 1) rotate(0) translate(4 328)">
<title>snakemake_dag</title>
<polygon fill="white" stroke="none" points="-4,4 -4,-328 554,-328 554,4 -4,4"/>
<!-- 0 -->
<g id="node1" class="node"><title>0</title>
<g id="a_node1"><a xlink:href="fastq_stats__phix.html" xlink:title="fastq_stats__phix" target="_parent">
<path fill="none" stroke="#5682d8" stroke-width="2" d="M214,-108C214,-108 138,-108 138,-108 132,-108 126,-102 126,-96 126,-96 126,-84 126,-84 126,-78 132,-72 138,-72 138,-72 214,-72 214,-72 220,-72 226,-78 226,-84 226,-84 226,-96 226,-96 226,-102 220,-108 214,-108"/>
<text text-anchor="middle" x="176" y="-87.5" font-family="sans" font-size="10.00">fastq_stats__phix</text>
</a>
</g>
</g>
<!-- 5 -->
<g id="node4" class="node"><title>5</title>
<path fill="none" stroke="#9fd856" stroke-width="2" d="M364,-36C364,-36 266,-36 266,-36 260,-36 254,-30 254,-24 254,-24 254,-12 254,-12 254,-6 260,-0 266,-0 266,-0 364,-0 364,-0 370,-0 376,-6 376,-12 376,-12 376,-24 376,-24 376,-30 370,-36 364,-36"/>
<text text-anchor="middle" x="315" y="-15.5" font-family="sans" font-size="10.00">pipeline_phix_removal</text>
</g>
<!-- 0&#45;&gt;5 -->
<g id="edge6" class="edge"><title>0&#45;&gt;5</title>
<path fill="none" stroke="grey" stroke-width="2" d="M210.003,-71.8761C228.598,-62.5117 251.827,-50.8136 271.706,-40.803"/>
<polygon fill="grey" stroke="grey" stroke-width="2" points="273.509,-43.8136 280.866,-36.1898 270.36,-37.5616 273.509,-43.8136"/>
</g>
<!-- 2 -->
<g id="node2" class="node"><title>2</title>
<g id="a_node2"><a xlink:href="fastqc__phix/fastqc__phix.html" xlink:title="fastqc__phix" target="_parent">
<path fill="none" stroke="#56d86b" stroke-width="2" d="M308,-108C308,-108 256,-108 256,-108 250,-108 244,-102 244,-96 244,-96 244,-84 244,-84 244,-78 250,-72 256,-72 256,-72 308,-72 308,-72 314,-72 320,-78 320,-84 320,-84 320,-96 320,-96 320,-102 314,-108 308,-108"/>
<text text-anchor="middle" x="282" y="-87.5" font-family="sans" font-size="10.00">fastqc__phix</text>
</a>
</g>
</g>
<!-- 2&#45;&gt;5 -->
<g id="edge8" class="edge"><title>2&#45;&gt;5</title>
<path fill="none" stroke="grey" stroke-width="2" d="M290.157,-71.6966C293.914,-63.7284 298.453,-54.0995 302.618,-45.2641"/>
<polygon fill="grey" stroke="grey" stroke-width="2" points="305.838,-46.6421 306.937,-36.1043 299.506,-43.6571 305.838,-46.6421"/>
</g>
<!-- 4 -->
<g id="node3" class="node"><title>4</title>
<g id="a_node3"><a xlink:href="bwa_mem__phix.html" xlink:title="bwa_mem__phix" target="_parent">
<path fill="none" stroke="#56d89a" stroke-width="2" d="M234,-252C234,-252 162,-252 162,-252 156,-252 150,-246 150,-240 150,-240 150,-228 150,-228 150,-222 156,-216 162,-216 162,-216 234,-216 234,-216 240,-216 246,-222 246,-228 246,-228 246,-240 246,-240 246,-246 240,-252 234,-252"/>
<text text-anchor="middle" x="198" y="-231.5" font-family="sans" font-size="10.00">bwa_mem__phix</text>
</a>
</g>
</g>
<!-- 8 -->
<g id="node6" class="node"><title>8</title>
<path fill="none" stroke="#ced856" stroke-width="2" d="M239.5,-180C239.5,-180 156.5,-180 156.5,-180 150.5,-180 144.5,-174 144.5,-168 144.5,-168 144.5,-156 144.5,-156 144.5,-150 150.5,-144 156.5,-144 156.5,-144 239.5,-144 239.5,-144 245.5,-144 251.5,-150 251.5,-156 251.5,-156 251.5,-168 251.5,-168 251.5,-174 245.5,-180 239.5,-180"/>
<text text-anchor="middle" x="198" y="-159.5" font-family="sans" font-size="10.00">bwa_bam_to_fastq</text>
</g>
<!-- 4&#45;&gt;8 -->
<g id="edge10" class="edge"><title>4&#45;&gt;8</title>
<path fill="none" stroke="grey" stroke-width="2" d="M198,-215.697C198,-207.983 198,-198.712 198,-190.112"/>
<polygon fill="grey" stroke="grey" stroke-width="2" points="201.5,-190.104 198,-180.104 194.5,-190.104 201.5,-190.104"/>
</g>
<!-- 6 -->
<g id="node5" class="node"><title>6</title>
<path fill="none" stroke="#d88556" stroke-width="2" stroke-dasharray="5,2" d="M538,-324C538,-324 366,-324 366,-324 360,-324 354,-318 354,-312 354,-312 354,-300 354,-300 354,-294 360,-288 366,-288 366,-288 538,-288 538,-288 544,-288 550,-294 550,-300 550,-300 550,-312 550,-312 550,-318 544,-324 538,-324"/>
<text text-anchor="middle" x="452" y="-309" font-family="sans" font-size="10.00">data</text>
<text text-anchor="middle" x="452" y="-298" font-family="sans" font-size="10.00">Hm2_GTGAAA_L005_R2_001.fastq.gz</text>
</g>
<!-- 6&#45;&gt;4 -->
<g id="edge5" class="edge"><title>6&#45;&gt;4</title>
<path fill="none" stroke="grey" stroke-width="2" d="M386.66,-287.895C350.65,-278.358 304.925,-266.068 256.001,-252.251"/>
<polygon fill="grey" stroke="grey" stroke-width="2" points="256.751,-248.826 246.175,-249.468 254.843,-255.561 256.751,-248.826"/>
</g>
<!-- 9 -->
<g id="node7" class="node"><title>9</title>
<g id="a_node7"><a xlink:href="fastqc__samples/fastqc__samples.html" xlink:title="fastqc__samples" target="_parent">
<path fill="none" stroke="#56d8c9" stroke-width="2" d="M488.5,-252C488.5,-252 415.5,-252 415.5,-252 409.5,-252 403.5,-246 403.5,-240 403.5,-240 403.5,-228 403.5,-228 403.5,-222 409.5,-216 415.5,-216 415.5,-216 488.5,-216 488.5,-216 494.5,-216 500.5,-222 500.5,-228 500.5,-228 500.5,-240 500.5,-240 500.5,-246 494.5,-252 488.5,-252"/>
<text text-anchor="middle" x="452" y="-231.5" font-family="sans" font-size="10.00">fastqc__samples</text>
</a>
</g>
</g>
<!-- 6&#45;&gt;9 -->
<g id="edge12" class="edge"><title>6&#45;&gt;9</title>
<path fill="none" stroke="grey" stroke-width="2" d="M452,-287.697C452,-279.983 452,-270.712 452,-262.112"/>
<polygon fill="grey" stroke="grey" stroke-width="2" points="455.5,-262.104 452,-252.104 448.5,-262.104 455.5,-262.104"/>
</g>
<!-- 10 -->
<g id="node8" class="node"><title>10</title>
<g id="a_node8"><a xlink:href="fastq_stats__samples.html" xlink:title="fastq_stats__samples" target="_parent">
<path fill="none" stroke="#d85656" stroke-width="2" d="M373.5,-252C373.5,-252 276.5,-252 276.5,-252 270.5,-252 264.5,-246 264.5,-240 264.5,-240 264.5,-228 264.5,-228 264.5,-222 270.5,-216 276.5,-216 276.5,-216 373.5,-216 373.5,-216 379.5,-216 385.5,-222 385.5,-228 385.5,-228 385.5,-240 385.5,-240 385.5,-246 379.5,-252 373.5,-252"/>
<text text-anchor="middle" x="325" y="-231.5" font-family="sans" font-size="10.00">fastq_stats__samples</text>
</a>
</g>
</g>
<!-- 6&#45;&gt;10 -->
<g id="edge14" class="edge"><title>6&#45;&gt;10</title>
<path fill="none" stroke="grey" stroke-width="2" d="M420.932,-287.876C404.173,-278.639 383.294,-267.131 365.298,-257.212"/>
<polygon fill="grey" stroke="grey" stroke-width="2" points="366.634,-253.952 356.187,-252.19 363.255,-260.082 366.634,-253.952"/>
</g>
<!-- 8&#45;&gt;0 -->
<g id="edge1" class="edge"><title>8&#45;&gt;0</title>
<path fill="none" stroke="grey" stroke-width="2" d="M192.562,-143.697C190.111,-135.898 187.16,-126.509 184.432,-117.829"/>
<polygon fill="grey" stroke="grey" stroke-width="2" points="187.713,-116.595 181.376,-108.104 181.035,-118.694 187.713,-116.595"/>
</g>
<!-- 8&#45;&gt;2 -->
<g id="edge2" class="edge"><title>8&#45;&gt;2</title>
<path fill="none" stroke="grey" stroke-width="2" d="M218.764,-143.697C229.241,-134.965 242.111,-124.24 253.5,-114.75"/>
<polygon fill="grey" stroke="grey" stroke-width="2" points="256.033,-117.195 261.475,-108.104 251.552,-111.817 256.033,-117.195"/>
</g>
<!-- 9&#45;&gt;5 -->
<g id="edge7" class="edge"><title>9&#45;&gt;5</title>
<path fill="none" stroke="grey" stroke-width="2" d="M441.02,-215.849C417.022,-178.362 359.78,-88.9491 331.454,-44.7025"/>
<polygon fill="grey" stroke="grey" stroke-width="2" points="334.371,-42.7674 326.032,-36.2325 328.476,-46.5416 334.371,-42.7674"/>
</g>
<!-- 10&#45;&gt;5 -->
<g id="edge9" class="edge"><title>10&#45;&gt;5</title>
<path fill="none" stroke="grey" stroke-width="2" d="M327.129,-215.99C330.439,-186.521 335.769,-124.127 329,-72 327.897,-63.506 325.839,-54.4338 323.634,-46.2397"/>
<polygon fill="grey" stroke="grey" stroke-width="2" points="326.945,-45.0872 320.824,-36.4397 320.216,-47.0172 326.945,-45.0872"/>
</g>
<!-- 11 -->
<g id="node9" class="node"><title>11</title>
<path fill="none" stroke="#d88556" stroke-width="2" stroke-dasharray="5,2" d="M324,-324C324,-324 152,-324 152,-324 146,-324 140,-318 140,-312 140,-312 140,-300 140,-300 140,-294 146,-288 152,-288 152,-288 324,-288 324,-288 330,-288 336,-294 336,-300 336,-300 336,-312 336,-312 336,-318 330,-324 324,-324"/>
<text text-anchor="middle" x="238" y="-309" font-family="sans" font-size="10.00">data</text>
<text text-anchor="middle" x="238" y="-298" font-family="sans" font-size="10.00">Hm2_GTGAAA_L005_R1_001.fastq.gz</text>
</g>
<!-- 11&#45;&gt;4 -->
<g id="edge3" class="edge"><title>11&#45;&gt;4</title>
<path fill="none" stroke="grey" stroke-width="2" d="M228.112,-287.697C223.511,-279.644 217.94,-269.894 212.847,-260.982"/>
<polygon fill="grey" stroke="grey" stroke-width="2" points="215.774,-259.05 207.774,-252.104 209.696,-262.523 215.774,-259.05"/>
</g>
<!-- 11&#45;&gt;9 -->
<g id="edge11" class="edge"><title>11&#45;&gt;9</title>
<path fill="none" stroke="grey" stroke-width="2" d="M290.077,-287.966C321.358,-277.733 361.233,-264.69 393.585,-254.108"/>
<polygon fill="grey" stroke="grey" stroke-width="2" points="394.949,-257.344 403.365,-250.909 392.773,-250.691 394.949,-257.344"/>
</g>
<!-- 11&#45;&gt;10 -->
<g id="edge13" class="edge"><title>11&#45;&gt;10</title>
<path fill="none" stroke="grey" stroke-width="2" d="M259.506,-287.697C270.463,-278.881 283.946,-268.032 295.825,-258.474"/>
<polygon fill="grey" stroke="grey" stroke-width="2" points="298.145,-261.1 303.742,-252.104 293.756,-255.646 298.145,-261.1"/>
</g>
<!-- 12 -->
<g id="node10" class="node"><title>12</title>
<path fill="none" stroke="#d88556" stroke-width="2" stroke-dasharray="5,2" d="M110,-324C110,-324 12,-324 12,-324 6,-324 -7.10543e-15,-318 -7.10543e-15,-312 -7.10543e-15,-312 -7.10543e-15,-300 -7.10543e-15,-300 -7.10543e-15,-294 6,-288 12,-288 12,-288 110,-288 110,-288 116,-288 122,-294 122,-300 122,-300 122,-312 122,-312 122,-318 116,-324 110,-324"/>
<text text-anchor="middle" x="61" y="-309" font-family="sans" font-size="10.00">data</text>
<text text-anchor="middle" x="61" y="-298" font-family="sans" font-size="10.00"> Coliphage_phiX174.fa</text>
</g>
<!-- 12&#45;&gt;4 -->
<g id="edge4" class="edge"><title>12&#45;&gt;4</title>
<path fill="none" stroke="grey" stroke-width="2" d="M94.514,-287.876C112.841,-278.512 135.736,-266.814 155.328,-256.803"/>
<polygon fill="grey" stroke="grey" stroke-width="2" points="157.045,-259.857 164.357,-252.19 153.86,-253.623 157.045,-259.857"/>
</g>
</g>
</svg>
