<?xml version="1.0" encoding="UTF-8" standalone="no"?>
<!DOCTYPE svg PUBLIC "-//W3C//DTD SVG 1.1//EN"
 "http://www.w3.org/Graphics/SVG/1.1/DTD/svg11.dtd">
<!-- Generated by graphviz version 2.38.0 (20140413.2041)
 -->
<!-- Title: snakemake_dag Pages: 1 -->
<svg width="504pt" height="404pt"
 viewBox="0.00 0.00 504.00 404.00" xmlns="http://www.w3.org/2000/svg" xmlns:xlink="http://www.w3.org/1999/xlink">
<g id="graph0" class="graph" transform="scale(1 1) rotate(0) translate(4 400)">
<title>snakemake_dag</title>
<polygon fill="white" stroke="none" points="-4,4 -4,-400 500,-400 500,4 -4,4"/>
<!-- 0 -->
<g id="node1" class="node"><title>0</title>
<path fill="none" stroke="#d87d56" stroke-width="2" d="M419.5,-36C419.5,-36 389.5,-36 389.5,-36 383.5,-36 377.5,-30 377.5,-24 377.5,-24 377.5,-12 377.5,-12 377.5,-6 383.5,-0 389.5,-0 389.5,-0 419.5,-0 419.5,-0 425.5,-0 431.5,-6 431.5,-12 431.5,-12 431.5,-24 431.5,-24 431.5,-30 425.5,-36 419.5,-36"/>
<text text-anchor="middle" x="404.5" y="-15.5" font-family="sans" font-size="10.00">all</text>
</g>
<!-- 1 -->
<g id="node2" class="node"><title>1</title>
<g id="a_node2"><a xlink:href="fastq_sampling\ndataset: Hm2_GTGAAA_L005_R1_001.fastq.gz.html" xlink:title="fastq_sampling\ndataset: Hm2_GTGAAA_L005_R1_001.fastq.gz" target="_parent">
<path fill="none" stroke="#d85656" stroke-width="2" stroke-dasharray="5,2" d="M227,-396C227,-396 12,-396 12,-396 6,-396 -1.42109e-14,-390 -1.42109e-14,-384 -1.42109e-14,-384 -1.42109e-14,-372 -1.42109e-14,-372 -1.42109e-14,-366 6,-360 12,-360 12,-360 227,-360 227,-360 233,-360 239,-366 239,-372 239,-372 239,-384 239,-384 239,-390 233,-396 227,-396"/>
<text text-anchor="middle" x="119.5" y="-381" font-family="sans" font-size="10.00">fastq_sampling</text>
<text text-anchor="middle" x="119.5" y="-370" font-family="sans" font-size="10.00">dataset: Hm2_GTGAAA_L005_R1_001.fastq.gz</text>
</a>
</g>
</g>
<!-- 2 -->
<g id="node3" class="node"><title>2</title>
<g id="a_node3"><a xlink:href="bwa_fix.html" xlink:title="bwa_fix" target="_parent">
<path fill="none" stroke="#c6d856" stroke-width="2" d="M299.5,-324C299.5,-324 269.5,-324 269.5,-324 263.5,-324 257.5,-318 257.5,-312 257.5,-312 257.5,-300 257.5,-300 257.5,-294 263.5,-288 269.5,-288 269.5,-288 299.5,-288 299.5,-288 305.5,-288 311.5,-294 311.5,-300 311.5,-300 311.5,-312 311.5,-312 311.5,-318 305.5,-324 299.5,-324"/>
<text text-anchor="middle" x="284.5" y="-303.5" font-family="sans" font-size="10.00">bwa_fix</text>
</a>
</g>
</g>
<!-- 1&#45;&gt;2 -->
<g id="edge3" class="edge"><title>1&#45;&gt;2</title>
<path fill="none" stroke="grey" stroke-width="2" d="M159.864,-359.876C186.766,-348.463 221.84,-333.583 247.924,-322.517"/>
<polygon fill="grey" stroke="grey" stroke-width="2" points="249.607,-325.605 257.446,-318.478 246.873,-319.161 249.607,-325.605"/>
</g>
<!-- 5 -->
<g id="node6" class="node"><title>5</title>
<g id="a_node6"><a xlink:href="fastqc.html" xlink:title="fastqc" target="_parent">
<path fill="none" stroke="#9fd856" stroke-width="2" d="M354.5,-180C354.5,-180 324.5,-180 324.5,-180 318.5,-180 312.5,-174 312.5,-168 312.5,-168 312.5,-156 312.5,-156 312.5,-150 318.5,-144 324.5,-144 324.5,-144 354.5,-144 354.5,-144 360.5,-144 366.5,-150 366.5,-156 366.5,-156 366.5,-168 366.5,-168 366.5,-174 360.5,-180 354.5,-180"/>
<text text-anchor="middle" x="339.5" y="-159.5" font-family="sans" font-size="10.00">fastqc</text>
</a>
</g>
</g>
<!-- 1&#45;&gt;5 -->
<g id="edge8" class="edge"><title>1&#45;&gt;5</title>
<path fill="none" stroke="grey" stroke-width="2" d="M137.132,-359.849C176.072,-321.971 269.515,-231.077 314.486,-187.332"/>
<polygon fill="grey" stroke="grey" stroke-width="2" points="317.057,-189.714 321.784,-180.232 312.176,-184.696 317.057,-189.714"/>
</g>
<!-- 7 -->
<g id="node8" class="node"><title>7</title>
<g id="a_node8"><a xlink:href="bwa_bam_to_fastq.html" xlink:title="bwa_bam_to_fastq" target="_parent">
<path fill="none" stroke="#56d87b" stroke-width="2" d="M463,-252C463,-252 380,-252 380,-252 374,-252 368,-246 368,-240 368,-240 368,-228 368,-228 368,-222 374,-216 380,-216 380,-216 463,-216 463,-216 469,-216 475,-222 475,-228 475,-228 475,-240 475,-240 475,-246 469,-252 463,-252"/>
<text text-anchor="middle" x="421.5" y="-231.5" font-family="sans" font-size="10.00">bwa_bam_to_fastq</text>
</a>
</g>
</g>
<!-- 2&#45;&gt;7 -->
<g id="edge11" class="edge"><title>2&#45;&gt;7</title>
<path fill="none" stroke="grey" stroke-width="2" d="M311.567,-291.17C330.808,-281.339 357.037,-267.937 379.049,-256.691"/>
<polygon fill="grey" stroke="grey" stroke-width="2" points="380.879,-259.686 388.191,-252.019 377.694,-253.452 380.879,-259.686"/>
</g>
<!-- 3 -->
<g id="node4" class="node"><title>3</title>
<path fill="none" stroke="#56a2d8" stroke-width="2" d="M373.5,-108C373.5,-108 343.5,-108 343.5,-108 337.5,-108 331.5,-102 331.5,-96 331.5,-96 331.5,-84 331.5,-84 331.5,-78 337.5,-72 343.5,-72 343.5,-72 373.5,-72 373.5,-72 379.5,-72 385.5,-78 385.5,-84 385.5,-84 385.5,-96 385.5,-96 385.5,-102 379.5,-108 373.5,-108"/>
<text text-anchor="middle" x="358.5" y="-87.5" font-family="sans" font-size="10.00">report</text>
</g>
<!-- 3&#45;&gt;0 -->
<g id="edge1" class="edge"><title>3&#45;&gt;0</title>
<path fill="none" stroke="grey" stroke-width="2" d="M369.871,-71.6966C375.218,-63.5589 381.704,-53.689 387.611,-44.7013"/>
<polygon fill="grey" stroke="grey" stroke-width="2" points="390.693,-46.3835 393.26,-36.1043 384.843,-42.5393 390.693,-46.3835"/>
</g>
<!-- 4 -->
<g id="node5" class="node"><title>4</title>
<g id="a_node5"><a xlink:href="fastq_sampling\ndataset: Hm2_GTGAAA_L005_R2_001.fastq.gz.html" xlink:title="fastq_sampling\ndataset: Hm2_GTGAAA_L005_R2_001.fastq.gz" target="_parent">
<path fill="none" stroke="#d85656" stroke-width="2" stroke-dasharray="5,2" d="M484,-396C484,-396 269,-396 269,-396 263,-396 257,-390 257,-384 257,-384 257,-372 257,-372 257,-366 263,-360 269,-360 269,-360 484,-360 484,-360 490,-360 496,-366 496,-372 496,-372 496,-384 496,-384 496,-390 490,-396 484,-396"/>
<text text-anchor="middle" x="376.5" y="-381" font-family="sans" font-size="10.00">fastq_sampling</text>
<text text-anchor="middle" x="376.5" y="-370" font-family="sans" font-size="10.00">dataset: Hm2_GTGAAA_L005_R2_001.fastq.gz</text>
</a>
</g>
</g>
<!-- 4&#45;&gt;2 -->
<g id="edge4" class="edge"><title>4&#45;&gt;2</title>
<path fill="none" stroke="grey" stroke-width="2" d="M353.758,-359.697C342.06,-350.796 327.639,-339.823 314.99,-330.199"/>
<polygon fill="grey" stroke="grey" stroke-width="2" points="317.058,-327.374 306.98,-324.104 312.819,-332.945 317.058,-327.374"/>
</g>
<!-- 4&#45;&gt;5 -->
<g id="edge9" class="edge"><title>4&#45;&gt;5</title>
<path fill="none" stroke="grey" stroke-width="2" d="M373.535,-359.849C367.121,-322.753 351.916,-234.81 344.186,-190.103"/>
<polygon fill="grey" stroke="grey" stroke-width="2" points="347.632,-189.49 342.479,-180.232 340.734,-190.683 347.632,-189.49"/>
</g>
<!-- 5&#45;&gt;3 -->
<g id="edge5" class="edge"><title>5&#45;&gt;3</title>
<path fill="none" stroke="grey" stroke-width="2" d="M344.197,-143.697C346.313,-135.898 348.862,-126.509 351.218,-117.829"/>
<polygon fill="grey" stroke="grey" stroke-width="2" points="354.616,-118.672 353.857,-108.104 347.86,-116.838 354.616,-118.672"/>
</g>
<!-- 6 -->
<g id="node7" class="node"><title>6</title>
<path fill="none" stroke="#d8c356" stroke-width="2" stroke-dasharray="5,2" d="M282.5,-180C282.5,-180 252.5,-180 252.5,-180 246.5,-180 240.5,-174 240.5,-168 240.5,-168 240.5,-156 240.5,-156 240.5,-150 246.5,-144 252.5,-144 252.5,-144 282.5,-144 282.5,-144 288.5,-144 294.5,-150 294.5,-156 294.5,-156 294.5,-168 294.5,-168 294.5,-174 288.5,-180 282.5,-180"/>
<text text-anchor="middle" x="267.5" y="-159.5" font-family="sans" font-size="10.00">dag</text>
</g>
<!-- 6&#45;&gt;3 -->
<g id="edge6" class="edge"><title>6&#45;&gt;3</title>
<path fill="none" stroke="grey" stroke-width="2" d="M289.994,-143.697C301.455,-134.881 315.558,-124.032 327.984,-114.474"/>
<polygon fill="grey" stroke="grey" stroke-width="2" points="330.472,-116.976 336.264,-108.104 326.204,-111.427 330.472,-116.976"/>
</g>
<!-- 7&#45;&gt;0 -->
<g id="edge2" class="edge"><title>7&#45;&gt;0</title>
<path fill="none" stroke="grey" stroke-width="2" d="M420.138,-215.849C417.197,-178.832 410.234,-91.1809 406.676,-46.3863"/>
<polygon fill="grey" stroke="grey" stroke-width="2" points="410.15,-45.9239 405.869,-36.2325 403.172,-46.4782 410.15,-45.9239"/>
</g>
<!-- 7&#45;&gt;3 -->
<g id="edge7" class="edge"><title>7&#45;&gt;3</title>
<path fill="none" stroke="grey" stroke-width="2" d="M413.901,-215.871C403.069,-191.457 383.09,-146.426 370.317,-117.635"/>
<polygon fill="grey" stroke="grey" stroke-width="2" points="373.381,-115.911 366.126,-108.189 366.982,-118.749 373.381,-115.911"/>
</g>
<!-- 7&#45;&gt;5 -->
<g id="edge10" class="edge"><title>7&#45;&gt;5</title>
<path fill="none" stroke="grey" stroke-width="2" d="M401.23,-215.697C391.002,-206.965 378.439,-196.24 367.322,-186.75"/>
<polygon fill="grey" stroke="grey" stroke-width="2" points="369.415,-183.935 359.537,-180.104 364.87,-189.259 369.415,-183.935"/>
</g>
</g>
</svg>
